<svg xmlns="http://www.w3.org/2000/svg" viewBox="0 0 8.92 8.92"><g id="Layer_2" data-name="Layer 2"><g id="Layer_1-2" data-name="Layer 1"><path d="M4.47,0A4.46,4.46,0,1,0,8.92,4.47v0A4.45,4.45,0,0,0,4.47,0ZM2.57,2.9H6.36A.44.44,0,0,1,6.58,3L4.89,4.7a.63.63,0,0,1-.43.17A.62.62,0,0,1,4,4.7L2.35,3A.44.44,0,0,1,2.57,2.9ZM6.71,5.66A.35.35,0,0,1,6.36,6H2.57a.35.35,0,0,1-.35-.34V3.29h0L3.38,4.47h0l-.81.87h0a.13.13,0,0,0,0,.18h0a.13.13,0,0,0,.18,0l0,0,.81-.86h0l.19.2a.88.88,0,0,0,.63.26A.85.85,0,0,0,5,4.87l.19-.2h0l.8.86a.13.13,0,0,0,.18,0l0,0h0a.12.12,0,0,0,0-.17s0,0,0,0L5.4,4.47h0L6.67,3.28h0Z"/></g></g></svg>