<?xml version="1.0" encoding="utf-8"?>
<!-- Generator: Adobe Illustrator 17.0.0, SVG Export Plug-In . SVG Version: 6.00 Build 0)  -->
<!DOCTYPE svg PUBLIC "-//W3C//DTD SVG 1.1//EN" "http://www.w3.org/Graphics/SVG/1.1/DTD/svg11.dtd">
<svg version="1.1" id="Calque_1" xmlns="http://www.w3.org/2000/svg" xmlns:xlink="http://www.w3.org/1999/xlink" x="0px" y="0px"
	 width="640px" height="480px" viewBox="0 0 640 480" enable-background="new 0 0 640 480" xml:space="preserve">
<g id="Layer_2">
	<g id="Layer_1-2">
		<path fill="#000044" d="M320.538,0C187.99-0.297,80.298,106.914,80.001,239.462c-0.297,132.548,106.914,240.24,239.462,240.537
			C452.011,480.296,559.703,373.086,560,240.538l0,0C560.594,108.288,453.867,0.597,321.617,0.002
			C321.257,0.001,320.898,0,320.538,0z M218.296,156.054h203.946c4.371,0.654,8.472,2.518,11.839,5.381l-90.942,91.48
			c-6.275,5.872-14.545,9.142-23.139,9.148c-9.158,0.482-18.11-2.826-24.753-9.148l-88.789-91.48
			C209.824,158.572,213.925,156.707,218.296,156.054z M441.076,304.574c-0.291,10.191-8.639,18.3-18.834,18.296H218.296
			c-10.195,0.004-18.543-8.105-18.834-18.296V177.04l0,0l62.422,63.498l0,0l-43.587,46.816l0,0c-2.597,2.707-2.597,6.98,0,9.686l0,0
			c2.707,2.597,6.98,2.597,9.686,0l0,0l43.587-46.278l0,0l10.224,10.762c8.962,9.028,21.18,14.07,33.901,13.991
			c12.492,0.261,24.546-4.6,33.363-13.453l10.224-10.762l0,0l43.049,46.278c2.707,2.597,6.98,2.597,9.686,0l0,0l0,0
			c2.526-2.517,2.533-6.606,0.016-9.132c-0.005-0.005-0.011-0.011-0.016-0.016l0,0l-41.435-47.892l0,0l68.341-64.036l0,0
			L441.076,304.574z"/>
	</g>
</g>
</svg>
