<svg xmlns="http://www.w3.org/2000/svg" viewBox="0 0 8.87 8.87"><defs><style>.cls-1{fill:#004;}</style></defs><g id="Layer_2" data-name="Layer 2"><g id="Nom_poste" data-name="Nom  /  poste"><path class="cls-1" d="M7.58,1.3a4.44,4.44,0,0,0-7,5.35L0,8.87l2.32-.54a4.48,4.48,0,0,0,2.12.54h0A4.44,4.44,0,0,0,8.87,4.43,4.39,4.39,0,0,0,7.58,1.3ZM6.61,6a1.11,1.11,0,0,1-.75.53c-.2,0-.39.09-1.33-.28A4.54,4.54,0,0,1,2.64,4.59a2.18,2.18,0,0,1-.45-1.14,1.25,1.25,0,0,1,.39-.93.39.39,0,0,1,.29-.13h.22c.07,0,.16,0,.25.19s.31.77.34.82a.27.27,0,0,1,0,.2,1.74,1.74,0,0,1-.11.18L3.41,4a.17.17,0,0,0-.05.23A3.71,3.71,0,0,0,4,5a3.31,3.31,0,0,0,.89.55.18.18,0,0,0,.24,0c.06-.08.27-.32.35-.44s.15-.09.25,0l.75.36c.11,0,.19.08.22.13A1,1,0,0,1,6.61,6Z"/></g></g></svg>