<?xml version="1.0" encoding="utf-8"?>
<!-- Generator: Adobe Illustrator 17.0.0, SVG Export Plug-In . SVG Version: 6.00 Build 0)  -->
<!DOCTYPE svg PUBLIC "-//W3C//DTD SVG 1.1//EN" "http://www.w3.org/Graphics/SVG/1.1/DTD/svg11.dtd">
<svg version="1.1" id="Calque_1" xmlns="http://www.w3.org/2000/svg" xmlns:xlink="http://www.w3.org/1999/xlink" x="0px" y="0px"
	 width="640px" height="480px" viewBox="0 0 640 480" enable-background="new 0 0 640 480" xml:space="preserve">
<g id="Layer_2">
	<g id="Nom_poste">
		<path fill="#FFFFFF" d="M320,0C187.452,0,80,107.452,80,240s107.452,240,240,240s240-107.452,240-240
			C559.793,107.538,452.462,0.207,320,0z M246.907,344.364h-41.821V188.383h41.821V344.364z M226.185,155.981
			c-11.445,0-20.722-9.278-20.722-20.722c0-11.445,9.278-20.722,20.722-20.722c11.445,0,20.722,9.278,20.722,20.722l0,0
			c0.208,11.443-8.899,20.887-20.342,21.095c-0.127,0.002-0.253,0.003-0.38,0.003V155.981z M445.086,344.364h-41.444v-78.367
			c-5.059-20.184-25.522-32.446-45.706-27.387c-13.482,3.379-24.008,13.905-27.387,27.387v78.367h-41.821V188.383h41.821v19.215
			c27.446-25.18,70.108-23.343,95.288,4.103c11.247,12.259,17.565,28.242,17.742,44.877L445.086,344.364z"/>
	</g>
</g>
</svg>
