<?xml version="1.0" encoding="utf-8"?>
<!-- Generator: Adobe Illustrator 17.0.0, SVG Export Plug-In . SVG Version: 6.00 Build 0)  -->
<!DOCTYPE svg PUBLIC "-//W3C//DTD SVG 1.1//EN" "http://www.w3.org/Graphics/SVG/1.1/DTD/svg11.dtd">
<svg version="1.1" id="Calque_1" xmlns="http://www.w3.org/2000/svg" xmlns:xlink="http://www.w3.org/1999/xlink" x="0px" y="0px"
	 width="640px" height="480px" viewBox="0 0 640 480" enable-background="new 0 0 640 480" xml:space="preserve">
<g id="Layer_2">
	<g id="Nom_poste">
		<path fill="#FFFFFF" d="M320,0C186.719,0.133,78.782,108.286,78.915,241.567c0.118,118.472,86.216,219.338,203.2,238.054v-174.27
			h-57.964v-63.646h59.858v-42.052c0-70.087,34.096-100.395,92.06-100.395c16.582-0.136,33.156,0.75,49.629,2.652v55.691h-39.779
			c-24.625,0-33.339,23.11-33.339,49.629v34.475h72.36l-9.85,63.646h-62.51V480c132.033-16.595,225.613-137.081,209.018-269.114
			C546.333,89.423,442.412-1.287,320,0z"/>
	</g>
</g>
</svg>
