<?xml version="1.0" encoding="utf-8"?>
<!-- Generator: Adobe Illustrator 17.0.0, SVG Export Plug-In . SVG Version: 6.00 Build 0)  -->
<!DOCTYPE svg PUBLIC "-//W3C//DTD SVG 1.1//EN" "http://www.w3.org/Graphics/SVG/1.1/DTD/svg11.dtd">
<svg version="1.1" id="Calque_1" xmlns="http://www.w3.org/2000/svg" xmlns:xlink="http://www.w3.org/1999/xlink" x="0px" y="0px"
	 width="640px" height="480px" viewBox="0 0 640 480" enable-background="new 0 0 640 480" xml:space="preserve">
<g id="Layer_2">
	<g id="Nom_poste">
		<path fill="#FFFFFF" d="M607.24,65.519c-6.921-25.801-26.962-46.023-52.7-53.175C476.706,3.195,398.364-0.928,320,0
			C241.636-0.928,163.294,3.195,85.46,12.344c-25.773,7.261-45.914,27.403-53.175,53.175
			c-8.786,57.815-12.914,116.242-12.344,174.718c-0.573,58.318,3.555,116.588,12.344,174.243
			c7.261,25.773,27.403,45.914,53.175,53.175C163.294,476.805,241.636,480.928,320,480c78.364,0.928,156.706-3.195,234.54-12.344
			c25.738-7.152,45.779-27.374,52.7-53.175c9.132-57.621,13.42-115.906,12.819-174.243C620.658,181.743,616.37,123.3,607.24,65.519z
			 M260.178,343.739V136.261l179.941,103.976L260.178,343.739z"/>
	</g>
</g>
</svg>
