<?xml version="1.0" encoding="utf-8"?>
<!-- Generator: Adobe Illustrator 17.0.0, SVG Export Plug-In . SVG Version: 6.00 Build 0)  -->
<!DOCTYPE svg PUBLIC "-//W3C//DTD SVG 1.1//EN" "http://www.w3.org/Graphics/SVG/1.1/DTD/svg11.dtd">
<svg version="1.1" id="Calque_1" xmlns="http://www.w3.org/2000/svg" xmlns:xlink="http://www.w3.org/1999/xlink" x="0px" y="0px"
	 width="640px" height="480px" viewBox="0 0 640 480" enable-background="new 0 0 640 480" xml:space="preserve">
<g id="Layer_2">
	<g id="Nom_poste">
		<path fill="#FFFFFF" d="M320.189,0C187.537-0.209,79.831,107.157,79.621,239.81c-0.209,132.653,107.157,240.359,239.81,240.568
			C452.085,480.587,559.79,373.221,560,240.568c0-0.126,0-0.252,0-0.379C560,107.684,452.694,0.209,320.189,0z M258.437,75.77
			h124.641c57.662,0.208,104.354,46.9,104.562,104.562v122.747c-1.03,57.069-47.484,102.85-104.562,103.047H258.437
			c-56.339-1.212-101.664-46.703-102.668-103.047V178.437C156.974,122.242,202.242,76.974,258.437,75.77z M258.437,113.654
			c-36.223,0.156-66.003,28.605-67.814,64.783v124.641c0.824,36.859,30.945,66.308,67.814,66.298h124.641
			c36.278-0.802,65.496-30.02,66.298-66.298V178.437c0.009-36.869-29.439-66.99-66.298-67.814L258.437,113.654z M406.188,144.72
			c6.692-0.209,12.287,5.046,12.496,11.738c0.004,0.128,0.006,0.256,0.006,0.385c0,6.905-5.597,12.502-12.502,12.502
			c-6.695,0.003-12.126-5.422-12.129-12.117c0-0.128,0.002-0.257,0.006-0.385c-1.677-6.482,2.218-13.096,8.7-14.774
			c1.117-0.289,2.27-0.417,3.423-0.38L406.188,144.72z M320.189,147.751c51.053,0,92.439,41.386,92.439,92.439
			s-41.386,92.439-92.439,92.439s-92.439-41.386-92.439-92.439l0,0c-0.21-50.843,40.837-92.229,91.68-92.439
			C319.683,147.75,319.936,147.75,320.189,147.751z M320.189,185.635c-30.756-0.203-55.854,24.566-56.057,55.322
			c-0.203,30.756,24.566,55.854,55.322,56.057s55.854-24.566,56.057-55.322c0.003-0.501,0-1.002-0.01-1.503
			c0.001-30.61-24.703-55.482-55.312-55.691V185.635z"/>
	</g>
</g>
</svg>
